<svg width="44" height="44" viewBox="0 0 44 44" fill="none" xmlns="http://www.w3.org/2000/svg">
<circle cx="22" cy="22" r="22" fill="#E7D7F6"/>
<path d="M28.3 15.71C27.91 15.32 27.28 15.32 26.89 15.71L22 20.59L17.11 15.7C16.72 15.31 16.09 15.31 15.7 15.7C15.31 16.09 15.31 16.72 15.7 17.11L20.59 22L15.7 26.89C15.31 27.28 15.31 27.91 15.7 28.3C16.09 28.69 16.72 28.69 17.11 28.3L22 23.41L26.89 28.3C27.28 28.69 27.91 28.69 28.3 28.3C28.69 27.91 28.69 27.28 28.3 26.89L23.41 22L28.3 17.11C28.68 16.73 28.68 16.09 28.3 15.71Z" fill="#301E4E"/>
</svg>
