<svg width="104" height="144" viewBox="0 0 104 144" fill="none" xmlns="http://www.w3.org/2000/svg">
<path d="M90.6809 0.25H14.3761C3.84742 0.25 0.75 8.19375 0.75 13.1938V134.797C0.75 140.432 3.76734 142.523 5.465 143.212C7.16266 143.901 11.8424 144.493 14.6484 141.236C14.6484 141.236 50.6739 99.3098 51.2921 98.6884C52.2274 97.7499 52.2274 97.7499 53.1627 97.7499H76.4719C86.267 97.7499 87.8398 90.7447 88.8648 86.6191C89.7136 83.1629 99.2685 34.0878 102.462 18.5334C104.896 6.65625 101.885 0.25 90.6809 0.25ZM88.8648 86.6191C89.7136 83.1629 99.2685 34.0878 102.462 18.5334L88.8648 86.6191ZM86.1741 20.9646L82.971 37.5344C82.5898 39.3441 80.3188 41.25 78.2112 41.25H47.4868C44.1427 41.25 41.75 43.2167 41.75 46.5672V50.8754C41.75 54.2291 44.1587 56.6058 47.5156 56.6058H73.7332C76.0971 56.6058 78.413 59.2035 77.8973 61.7308C77.3816 64.258 74.9856 76.6477 74.6941 78.0315C74.4027 79.4152 72.8235 81.7855 70.0144 81.7855H49.4375C45.6898 81.7855 44.5559 82.2788 42.0479 85.4051C39.5398 88.5313 16.9802 115.703 16.9802 115.703C16.7528 115.966 16.5286 115.889 16.5286 115.604V20.718C16.5286 18.5751 18.3864 16.0638 21.1667 16.0638H82.3913C82.9848 16.0768 83.5678 16.2224 84.0978 16.49C84.6277 16.7576 85.091 17.1404 85.4537 17.6103C85.8165 18.0802 86.0695 18.6254 86.1941 19.2058C86.3188 19.7862 86.3119 20.3872 86.1741 20.9646Z" fill="black"/>
</svg>
