<svg width="144" height="144" viewBox="0 0 144 144" fill="none" xmlns="http://www.w3.org/2000/svg">
<path d="M72.0161 0.25C32.3935 0.25 0.266113 32.3773 0.266113 72C0.266113 101.373 17.9474 126.613 43.22 137.728C43.0278 132.731 43.188 126.709 44.4692 121.264C45.8466 115.434 53.6942 82.1539 53.6942 82.1539C53.6942 82.1539 51.388 77.5734 51.388 70.8148C51.388 60.1805 57.538 52.2367 65.2255 52.2367C71.7599 52.2367 74.8989 57.1375 74.8989 62.9992C74.8989 69.5656 70.7028 79.3672 68.5567 88.4641C66.763 96.0875 72.3685 102.27 79.8958 102.27C93.4771 102.27 102.638 84.8125 102.638 64.1203C102.638 48.393 92.0356 36.6375 72.7849 36.6375C51.0356 36.6375 37.4544 52.8773 37.4544 71.007C37.4544 77.2531 39.3122 81.6734 42.195 85.0687C43.5083 86.6383 43.7005 87.2789 43.22 89.0727C42.8677 90.3859 42.0989 93.557 41.7466 94.8383C41.2661 96.6641 39.7927 97.3047 38.1591 96.632C28.1333 92.532 23.4567 81.5773 23.4567 69.2133C23.4567 48.8414 40.6575 24.4016 74.7388 24.4016C102.125 24.4016 120.159 44.2289 120.159 65.4977C120.159 93.6531 104.496 114.666 81.4333 114.666C73.6817 114.666 66.4106 110.47 63.9122 105.729C63.9122 105.729 59.7481 122.257 58.8513 125.46C57.3458 131.002 54.3669 136.511 51.6442 140.835C58.2487 142.784 65.0982 143.776 71.9841 143.782C111.607 143.782 143.734 111.655 143.734 72.032C143.734 32.4094 111.639 0.25 72.0161 0.25Z" fill="black"/>
</svg>
