<svg width="164" height="62" viewBox="0 0 164 62" fill="none" xmlns="http://www.w3.org/2000/svg">
<path d="M105.927 61.75L130.822 0.25H114.32L97.2917 39.9912L85.1807 0.25H72.4931L59.4948 39.9912L50.3243 21.8839L42.0282 47.3359L50.4524 61.75H66.6923L78.4413 26.1088L89.6523 61.75H105.927ZM15.628 40.6382H25.7659C28.5358 40.6771 31.2977 40.3311 33.9723 39.61L36.5925 31.5413L43.9212 8.99453C43.3558 8.10448 42.7127 7.26625 41.9994 6.48969C38.2453 2.32989 32.7434 0.25 25.4937 0.25H0V61.75H15.628V40.6382ZM29.0491 14.3982C30.5204 15.8759 31.255 17.8533 31.2529 20.3304C31.2508 22.8075 30.6101 24.7859 29.331 26.2658C27.9131 27.893 25.3036 28.7055 21.5026 28.7034H15.628V12.1816H21.5282C25.0709 12.1816 27.5778 12.9205 29.0491 14.3982ZM120.71 50.7344L125.447 38.8028H139.121L132.632 20.702L140.749 0.25L164 61.75H146.854L142.882 50.7344H120.71Z" fill="black"/>
</svg>
