<svg width="164" height="114" viewBox="0 0 164 114" fill="none" xmlns="http://www.w3.org/2000/svg">
<path d="M163.929 80.0849C163.459 76.2668 161.524 72.9547 158.164 70.2289C158.122 70.178 158.076 70.1309 158.026 70.0879L157.856 69.9662L157.802 69.9278L156.018 68.6465L155.957 68.6017L155.729 68.4415C155.646 68.3929 155.557 68.3552 155.464 68.3294C149.82 64.9694 140.476 62.6151 126.181 67.66C122.769 61.92 122.382 57.3203 124.666 50.2734C125.072 49.0466 124.694 48.2362 123.477 47.7109C121.03 46.6699 117.68 47.2016 115.303 47.8294C114.195 48.1177 113.528 48.7455 113.317 49.6969C111.811 56.7437 107.436 63.182 103.205 69.3961L102.955 69.7612C100.347 64.2326 100.889 59.9501 102.705 54.5848C103.067 53.515 102.782 52.8039 101.779 52.2722C98.9797 50.8276 94.7804 51.8205 93.1084 52.3138C90.9879 52.932 88.7137 58.6624 86.1736 65.5235C85.533 67.25 84.9821 68.7266 84.6522 69.4153C83.8674 71.0169 83.1179 72.8426 82.3235 74.7805C80.5297 79.1656 78.5086 84.1016 75.6193 87.2022C74.5687 84.88 76.2215 81.2188 77.8263 77.6665C79.7257 73.4672 81.5195 69.4986 79.4535 66.9649C79.1268 66.5643 78.7215 66.2349 78.2626 65.9969C77.8037 65.7589 77.3009 65.6174 76.7853 65.5812C76.1125 65.5299 75.4372 65.6397 74.8154 65.9015C75.03 64.0917 75.0396 62.6631 74.511 60.9366C73.7551 58.4734 71.7916 57.0929 69.0882 57.1665C62.9318 57.3459 57.7235 61.9328 54.4339 65.7509C52.2429 68.3134 47.387 70.2673 43.1236 71.981C41.4388 72.6953 39.8372 73.3359 38.5015 73.9765C36.3714 72.1764 33.6648 70.3602 30.814 68.4415C22.8062 63.0667 13.7318 56.9711 13.4179 48.7071C12.9694 36.5 26.871 27.8419 39.0044 21.6631C48.2006 16.9865 56.1956 13.8859 63.4475 12.1915C73.6334 9.81154 82.237 10.292 89.0148 13.6137C92.724 15.4298 94.4601 19.3793 93.3582 23.4408C90.4754 33.9951 78.531 41.2278 68.3162 44.4822C62.163 46.4425 56.9259 47.2625 52.3006 46.9934C46.5029 46.6571 41.7687 43.7486 39.7443 42.509C39.42 42.2875 39.077 42.0946 38.7193 41.9325L38.6264 41.9101C38.4431 41.8644 38.2508 41.8702 38.0706 41.9267C37.8903 41.9832 37.7291 42.0883 37.6046 42.2304C37.1882 42.7269 37.3356 43.5116 37.4861 43.9088C39.4561 49.0562 43.524 52.3074 49.5747 53.5726C51.555 53.9692 53.5707 54.1613 55.5902 54.146C69.7512 54.146 87.82 45.9812 94.4569 39.2579C98.9829 34.6774 102.279 29.9688 103.643 21.8489C105.069 13.3446 99.3032 7.43482 93.4287 4.71217C79.1524 -1.87666 62.9382 0.727478 51.8489 4.07154C38.8763 7.98256 25.4552 15.0935 15.0322 23.5882C2.18129 34.0528 -2.46324 43.7679 1.22035 52.4964C5.00324 61.4427 14.2282 67.0386 23.1489 72.4519C26.0318 74.1976 28.7736 75.86 31.2432 77.5769C30.5001 77.9388 29.741 78.3072 28.969 78.6755C21.4801 82.3047 12.9854 86.3886 8.27363 93.1376C4.85269 98.0544 4.21207 102.949 6.37098 107.686C7.5241 110.207 9.5741 111.918 12.4217 112.77C13.903 113.189 15.437 113.393 16.9765 113.375C22.5211 113.375 28.6231 111.133 31.9447 109.06C37.8129 105.377 41.615 100.431 43.2486 94.3612C44.7028 88.9608 44.3536 83.5955 42.2396 78.8068L49.4306 75.1809C45.9616 86.7122 48.6202 93.5989 51.5414 97.3978C52.6177 98.7976 54.5588 99.64 56.7273 99.6784C58.8958 99.7168 60.8914 98.9001 62.0189 97.5099C64.1521 94.8673 65.7281 91.7763 67.1791 88.6853C67.1022 90.7033 67.1983 92.7468 67.887 94.4797C68.5052 96.0397 69.5238 97.0743 70.8371 97.4715C72.2336 97.8975 73.8704 97.5387 75.4464 96.4625C82.5477 91.6033 87.4036 79.9408 91.305 70.5652C91.8592 69.2327 92.3909 67.9515 92.9066 66.7535C93.8718 70.2078 95.2146 73.5453 96.9105 76.7056C97.2885 77.3911 97.2564 77.6922 96.7439 78.2559C95.972 79.1015 94.8958 80.1233 93.7554 81.206C90.3025 84.4828 86.0039 88.5732 85.4273 92.1703C85.2031 93.6117 86.1961 94.925 87.7368 95.2229C92.3717 96.1454 97.9547 94.7968 102.676 91.6193C106.968 88.7365 108.583 84.7166 107.481 79.7069C106.414 74.883 108.849 68.8932 114.717 61.8911C115.678 65.9047 116.959 69.1494 118.727 71.9906L118.679 72.029C114.406 75.7607 108.551 80.8697 109.46 87.0677C109.537 87.6572 109.735 88.2242 110.043 88.7327C110.351 89.2412 110.761 89.68 111.248 90.021C111.768 90.3722 112.355 90.6122 112.973 90.7257C113.59 90.8393 114.224 90.824 114.835 90.6808C120.431 89.5053 124.643 87.1382 127.705 83.4514C130.768 79.7646 129.65 75.6774 128.618 72.5063C136.626 70.3346 143.756 70.389 150.432 72.6665C154.179 73.9477 156.867 76.0522 158.417 78.9574C160.368 82.6122 159.314 85.9851 155.441 88.4547C154.253 89.2138 153.68 89.6783 153.644 90.2644C153.636 90.4005 153.661 90.5364 153.717 90.6607C153.773 90.785 153.858 90.8941 153.965 90.9787C154.413 91.3471 155.797 91.9877 158.926 90.0178C161.809 88.208 163.5 85.7448 163.933 82.6506C164.02 81.7975 164.019 80.9378 163.929 80.0849ZM35.891 88.1119L35.8589 88.5219C35.3593 93.2113 32.9761 97.2985 28.764 100.694C26.1182 102.827 23.245 104.137 20.6761 104.387C18.8824 104.56 17.5787 104.317 16.8036 103.66C16.2238 103.17 15.9131 102.436 15.8426 101.418C15.3173 93.2561 28.117 85.1458 35.3208 82.4776C35.8349 84.3087 36.0278 86.215 35.891 88.1119ZM68.675 65.0943C67.4898 71.8497 64.0336 84.6013 58.6011 89.5501C58.3417 89.7872 58.1239 89.8704 58.0246 89.848C57.9253 89.8256 57.8484 89.7071 57.7683 89.5277C55.9554 85.3252 56.6248 78.2271 59.3699 72.6504C61.4807 68.3519 64.4949 65.5043 67.8646 64.6426C68.0044 64.604 68.1487 64.5836 68.2938 64.5818C68.4072 64.5738 68.5201 64.6043 68.6141 64.6683C68.6537 64.7309 68.6797 64.8013 68.6902 64.8747C68.7006 64.9482 68.6955 65.023 68.675 65.0943ZM95.4179 89.7199C94.3961 90.7865 92.9963 90.6424 93.3262 90.2516L98.5281 84.7294C98.1085 86.6289 96.8689 88.2016 95.4179 89.7199ZM116.997 84.944C116.503 85.1878 115.967 85.3387 115.418 85.3893C115.271 82.484 118.086 79.2137 120.863 77.0323C121.61 80.0625 120.082 83.2656 116.997 84.944Z" fill="black"/>
</svg>
